<svg xmlns="http://www.w3.org/2000/svg" width="837.814" height="138.654" viewBox="0 0 837.814 138.654">
  <g id="Grupo_2681" data-name="Grupo 2681" transform="translate(-5555.956 -1619.753)">
    <path id="Unión_143" data-name="Unión 143" d="M791.129-8758.737l4.938-13.1-15.819,13.1H769.115a11.979,11.979,0,0,1-8.443-3.315,12.066,12.066,0,0,1-3.941-8.192l-13.76,11.508H731.84a11.969,11.969,0,0,1-10.383-5.379,11.735,11.735,0,0,1-2.239-8.077l-16.149,13.456H689.809a12.047,12.047,0,0,1-10.444-5.5,11.17,11.17,0,0,1-1.188-11.509l13.134-31.146h-7l-33.148,48.158H622.639a12.132,12.132,0,0,1-8.568-3.315,12.066,12.066,0,0,1-3.941-8.192l-13.76,11.508H585.237a11.968,11.968,0,0,1-10.381-5.379,11.727,11.727,0,0,1-2.239-8.077l-16.149,13.456H506.684a11.777,11.777,0,0,1-10.321-5.441,11.858,11.858,0,0,1-2.174-8.137l-16.4,13.578H466.656a11.771,11.771,0,0,1-10.319-5.441,11.87,11.87,0,0,1-1.315-11.571l11.884-31.146H451.9l-18.263,48.158H411.117l19.426-50.78-2.663,2.622H415.871l-33.023,48.158H369.964a11.735,11.735,0,0,1-9.693-4.691A12.211,12.211,0,0,1,357.83-8774l2.378-10.884-18.138,26.144H328.185a11.968,11.968,0,0,1-9.756-4.629,11.95,11.95,0,0,1-2.5-10.506L322.8-8806.9H308.3l-14.385,37.65a15.314,15.314,0,0,1-5.879,7.694,16.055,16.055,0,0,1-9.256,2.813h-30.4A11.968,11.968,0,0,1,238-8764.116a11.735,11.735,0,0,1-2.239-8.077l-16.149,13.456H206.35a12.047,12.047,0,0,1-10.444-5.5,11.165,11.165,0,0,1-1.188-11.509l13.134-31.146h-7L167.7-8758.737H100.528a11.778,11.778,0,0,1-10.321-5.441,11.875,11.875,0,0,1-1.313-11.571l22.517-60.04a15.305,15.305,0,0,1,5.877-7.692,16.254,16.254,0,0,1,9.383-2.813H479.984a11.782,11.782,0,0,1,10.321,5.439c2.458,3.629,2.972,6.734,1.387,10.821H131.548L111.036-8775h48.094l33.9-48.158h44.222L216.859-8775h19.5q.121-.375.265-.753l14.135-37.024a16.207,16.207,0,0,1,5.942-7.567,15.766,15.766,0,0,1,9.193-2.813h81.432l-10.633,43.4,30.772-43.4h18.011l-9.381,43.4,29.895-43.4h52.037l-3.754,9.881,11.884-9.881h11.134a12.006,12.006,0,0,1,10.381,5.316,11.72,11.72,0,0,1,1.376,11.569L477.164-8775H494.78q.123-.375.269-.753l22.515-60.04a15.321,15.321,0,0,1,5.879-7.692,16.254,16.254,0,0,1,9.383-2.813H754.1a11.776,11.776,0,0,1,10.319,5.439c2.461,3.629,2.776,6.734,1.19,10.821H537.7L517.19-8775h56.026q.121-.375.265-.753l14.135-37.024a16.207,16.207,0,0,1,5.942-7.567,15.766,15.766,0,0,1,9.193-2.813h48.533L633.02-8775h10.341l36.183-48.158h41.162L700.317-8775h19.5q.121-.375.265-.753l14.135-37.024a15.346,15.346,0,0,1,5.879-7.567,16.055,16.055,0,0,1,9.256-2.813h26.269l8.755-23.141H806.64L779.623-8775h53.785l3-7.883H800.137l11.256-29.895a16.083,16.083,0,0,1,6-7.567,16.055,16.055,0,0,1,9.256-2.813h75.8l-19.512,16.26H831.533l-3.376,8.881h36.4l-11.008,28.77a15.314,15.314,0,0,1-5.879,7.694,16.055,16.055,0,0,1-9.256,2.813ZM742.221-8775h15.01l12.134-31.9h-15.01Zm-146.6,0h15.01l12.134-31.9h-15.01Zm-336.858,0h15.01l10.383-27.27,5.752-4.629H270.9ZM88.95-8828.51v0Zm-.391-.815a3.411,3.411,0,0,1-.165-1.092h0a18.591,18.591,0,0,0-1.1-2.544.925.925,0,0,1-.179.029,12.125,12.125,0,0,0-.8-1.666,14.843,14.843,0,0,0-2.807-3.135,6.628,6.628,0,0,0-2.164-1.022.845.845,0,0,1,.1-.357,9.571,9.571,0,0,0-1.458-.609.572.572,0,0,1-.13.056c-.518.17-1.125-.272-1.358-.98l-.009-.031a1.229,1.229,0,0,1-.051-.179,1.675,1.675,0,0,1-.058-.569l0-.007a1.786,1.786,0,0,1,.016-.311c0-.04.007-.078.011-.12,0-.021,0-.04.007-.062.013-.123.04-.252.067-.389a.916.916,0,0,1,.034-.147c.029-.149.074-.3.121-.462l.013-.045c.031-.092.063-.183.092-.271l.013-.037a16.1,16.1,0,0,1,1.105-2.452,19.563,19.563,0,0,1,4.345-6.241c.02-.022.045-.047.067-.069s.051-.051.076-.076c.226-.234.46-.464.708-.707l.011-.01c.326-.314.634-.6.947-.884.06-.054.123-.107.183-.163h0q.111-.1.228-.205l.054-.045c.263-.228.536-.462.813-.692.295-.245.6-.5.909-.741a62.021,62.021,0,0,1,8.146-5.393c.639-.357,1.284-.7,1.891-1.019,1.014-.524,1.853-.942,2.644-1.311,0-.007,0-.009.007-.009l.007,0a122.843,122.843,0,0,1,14.617-5.769,121.985,121.985,0,0,1,15.182-3.914l.007,0s.009,0,.011,0c.864-.165,1.789-.321,2.907-.491.679-.1,1.4-.2,2.132-.29a62.36,62.36,0,0,1,9.76-.427c.393.016.786.043,1.168.067.337.022.672.049,1,.075l.138.012c.092.009.181.018.27.029l.281.026.232.026c.143.016.279.031.418.05.1.013.2.024.3.038.112.013.226.028.339.044l.051.007c.328.05.641.1.953.149.018,0,.036.007.056.012s.067.011.1.018l.018,0c.011,0,.02,0,.027,0,.054.011.107.02.161.031l.007,0c.121.022.246.045.364.069h.018c.13.024.257.049.38.076l.069.013h0l.089.021.04.009,0,0c.152.034.313.067.462.1a.028.028,0,0,1,.027,0s.011,0,.02.007c.19.042.384.092.534.132l.152.04c.127.031.248.063.368.1.054.011.118.031.165.044.359.1.724.218,1.11.353l-.032-.013c-.056-.021-.112-.04-.17-.062l.172.063.1.038.022.007.022.007a14.541,14.541,0,0,1,3.1,1.451,16.882,16.882,0,0,1,2.336,1.333c.069.054.165.123.266.188l.069.056c.121.094.232.184.337.277.033.028.069.06.112.1.114.1.205.191.281.274.047.049.08.087.123.139a1.584,1.584,0,0,1,.2.243l0,0a1.757,1.757,0,0,1,.288.5c.025.056.045.116.065.174l.009.029a1.221,1.221,0,0,1-.523,1.595.564.564,0,0,1-.136.028,9.75,9.75,0,0,0-.773,1.253.047.047,0,0,0,.018,0c.145-.043.308.035.493.243-1.532,1.844-2.081,4.937-1.244,8.105a1.12,1.12,0,0,1-.228.1.307.307,0,0,1-.214,0,18.2,18.2,0,0,0,.616,2.771l0,0a3.439,3.439,0,0,1,.509.98,3.311,3.311,0,0,1,.159.892c-1.572-2.395-6.42-3.513-13.648-3.153a102.883,102.883,0,0,0-25.42,5.158,102.719,102.719,0,0,0-23.591,10.768c-6.062,3.959-9.325,7.712-9.189,10.573A3.274,3.274,0,0,1,88.559-8829.325Zm7.744-23.936a11.144,11.144,0,0,0-2.061.92,9.87,9.87,0,0,0-3.756,3.634,3.927,3.927,0,0,0-.335,3.778,3.33,3.33,0,0,0,2.421,1.614,7.6,7.6,0,0,0,3.771-.338,11.019,11.019,0,0,0,2.063-.917,9.871,9.871,0,0,0,3.751-3.631,3.934,3.934,0,0,0,.33-3.783,3.328,3.328,0,0,0-2.416-1.614,6.022,6.022,0,0,0-1.153-.107A8.542,8.542,0,0,0,96.3-8853.261Zm21.2-9.646-8.637,7.249.013.044,11.252.8,0,0,8.635-7.257-.016-.045-11.247-.788Zm25-5.117a11.126,11.126,0,0,0-2.211.469,7.614,7.614,0,0,0-3.247,1.942,3.315,3.315,0,0,0-1,2.727,3.932,3.932,0,0,0,2.49,2.865,9.848,9.848,0,0,0,5.167.732,11.023,11.023,0,0,0,2.211-.469,7.616,7.616,0,0,0,3.251-1.945,3.335,3.335,0,0,0,1.007-2.729,3.932,3.932,0,0,0-2.492-2.86,9.326,9.326,0,0,0-3.92-.8A11.551,11.551,0,0,0,142.512-8868.024Zm-56.911,35.5a4.379,4.379,0,0,1-3.727-2.231,4.754,4.754,0,0,1-.782-3c.022-.295.1-.454.239-.5a.268.268,0,0,1,.071-.016c2.159.524,4.267,2.56,5.337,5.417l0,0a.25.25,0,0,1-.188.272l-.018,0a2.012,2.012,0,0,1-.58.055C85.85-8832.524,85.732-8832.526,85.6-8832.529Zm5.212-12.772c-.994-1.858.67-4.781,3.707-6.517a10.138,10.138,0,0,1,1.9-.846c2.47-.8,4.647-.378,5.419,1.059,1,1.855-.67,4.778-3.711,6.514a10.285,10.285,0,0,1-1.891.844,7.689,7.689,0,0,1-2.359.4A3.278,3.278,0,0,1,90.812-8845.3Zm5.594-6.867a9.24,9.24,0,0,0-1.675.746c-2.68,1.534-4.147,4.113-3.269,5.75.679,1.267,2.6,1.642,4.787.932a8.9,8.9,0,0,0,1.666-.744c2.684-1.531,4.151-4.113,3.274-5.752a2.9,2.9,0,0,0-2.7-1.285A6.8,6.8,0,0,0,96.406-8852.169Zm-17.131,5.934a13.017,13.017,0,0,0-.389-1.9,10.094,10.094,0,0,0-1.7-3.532,43.714,43.714,0,0,0-3.26-3.58c-.2-.2-.342-.339-.415-.424-.3-.326-2.007-1.782-2.284-2.015a3.662,3.662,0,0,0,1.181-1.021,3.985,3.985,0,0,0,.7-1.453c.248.226,1.949,1.753,2.3,2,.083.058.223.165.418.313A42.442,42.442,0,0,0,79.8-8855.1a9.914,9.914,0,0,0,5.243,1.123,22,22,0,0,0-5.763,7.737l-.009.007v0Zm31.268-9.926-.011-.033,7.221-5.951,0,0,9.343.569.011.036-7.217,5.969h0l0,0Zm1.539-.526.009.028,7.17.451-1.641-5.051Zm7.943.207,5.5-4.544-.009-.031-7.119-.434Zm-32.4.262a12.381,12.381,0,0,0,.19-1.909,10.083,10.083,0,0,0-.6-3.877,45.834,45.834,0,0,0-2.057-4.4h0c-.141-.272-.243-.467-.293-.574-.156-.328-1-1.69-1.411-2.345l-.188-.3a3.679,3.679,0,0,0,.531-.128,3.67,3.67,0,0,0,.9-.439,3.69,3.69,0,0,0,1.105-1.123l.031.051c1.105,1.862,1.48,2.437,1.6,2.591.058.076.154.212.288.4a44.455,44.455,0,0,0,3.044,3.924,10.6,10.6,0,0,0,4.832,2.827,61.825,61.825,0,0,0-7.764,5.16c-.007,0-.007,0-.011.007l-.2.132v0Zm72.678-.538v0c-.817-2.943-.306-5.826,1.132-7.521a.281.281,0,0,1,.067-.026c.141-.043.3.037.487.263a4.775,4.775,0,0,1,1.132,2.888,4.371,4.371,0,0,1-1.7,3.994,3.332,3.332,0,0,1-.788.512l-.018.007a.382.382,0,0,1-.1.015A.238.238,0,0,1,160.3-8856.757Zm-94.146-2.1a4.47,4.47,0,0,1-1.286-1.954l-.011-.038a4.288,4.288,0,0,1,.621-3.912,3.7,3.7,0,0,1,1.8-1.288,3.832,3.832,0,0,1,3.731.823,4.4,4.4,0,0,1,.679,5.9,3.7,3.7,0,0,1-1.8,1.293,3.686,3.686,0,0,1-1.14.181A3.96,3.96,0,0,1,66.156-8858.86Zm70.644-4.106c-.221-1.614,1.291-3.238,3.76-4.042a10.145,10.145,0,0,1,2.034-.429c3.477-.382,6.538,1,6.826,3.093.223,1.61-1.291,3.233-3.765,4.037a10.058,10.058,0,0,1-2.025.429,10.546,10.546,0,0,1-1.153.063C139.5-8859.814,137.056-8861.115,136.8-8862.967Zm5.855-4.026a8.827,8.827,0,0,0-1.793.382c-2.182.708-3.517,2.142-3.323,3.563.252,1.843,2.959,3.068,6.031,2.731a9.046,9.046,0,0,0,1.784-.38c2.184-.71,3.519-2.144,3.325-3.568-.226-1.635-2.386-2.783-5.018-2.783A9.316,9.316,0,0,0,142.655-8866.993Zm-43.927,3.8a11.286,11.286,0,0,0,.426-5.725,46.1,46.1,0,0,0-1.434-4.71c-.092-.259-.159-.446-.19-.549-.132-.427-1.054-2.517-1.212-2.86a3.634,3.634,0,0,0,1.139-.179,3.966,3.966,0,0,0,.375-.144,3.651,3.651,0,0,0,1.257-.92l.143.345c.3.71.918,2.192,1.1,2.5.049.085.125.236.23.446a45.244,45.244,0,0,0,2.461,4.346,9.17,9.17,0,0,0,2.644,2.584,12.063,12.063,0,0,0,1.76.986l0,0c-2.313.916-4.629,1.921-6.882,2.986h-.009a.012.012,0,0,0-.007,0,.037.037,0,0,1-.013,0c-.578.274-1.163.563-1.784.877Zm12.764-7.221a9.182,9.182,0,0,0,.223-3.457,45.38,45.38,0,0,0-.989-4.778c-.071-.286-.125-.491-.145-.605-.1-.433-.822-2.581-.951-2.958a3.615,3.615,0,0,0,1.541-.161,3.642,3.642,0,0,0,1.344-.781l.013.047c.514,1.647.846,2.652.96,2.909.042.1.112.268.205.507a46.841,46.841,0,0,0,2.039,4.515,9.163,9.163,0,0,0,2.2,2.655,12.338,12.338,0,0,0,1.771,1.272c-1.442.413-2.943.874-4.457,1.365-1.59.518-3.044,1.018-4.441,1.533A12.45,12.45,0,0,0,111.492-8870.409Zm-32.755-2.008a4.253,4.253,0,0,1,1.094-5.75,3.7,3.7,0,0,1,.886-.427,3.785,3.785,0,0,1,2.534.092,4.2,4.2,0,0,1,2.05,1.744,4.461,4.461,0,0,1,.585,3.169,3.949,3.949,0,0,1-1.684,2.581,3.647,3.647,0,0,1-.889.429,3.64,3.64,0,0,1-1.13.179A4.085,4.085,0,0,1,78.736-8872.417Zm70.28-2.354a9.845,9.845,0,0,0,3.548-3.975,42.511,42.511,0,0,0,1.61-4.562c.069-.232.121-.4.154-.5.138-.4.605-2.562.69-2.972a3.991,3.991,0,0,0,1.416.766,3.8,3.8,0,0,0,1.556.132c-.1.4-.619,2.541-.663,2.972-.011.109-.045.311-.087.585a43.227,43.227,0,0,0-.536,4.814,11.806,11.806,0,0,0,1.46,5.556A22.131,22.131,0,0,0,149.017-8874.771Zm-25.824,2.586a12.411,12.411,0,0,0,.844-1.836,9.2,9.2,0,0,0,.627-3.644,46.552,46.552,0,0,0-.569-4.953c-.038-.236-.065-.406-.076-.5-.051-.413-.529-2.425-.677-3.034a3.647,3.647,0,0,0,1.559.007,3.617,3.617,0,0,0,.389-.105,3.547,3.547,0,0,0,1.027-.524c.069.354.554,2.6.7,3.027.036.1.089.282.163.534a46.212,46.212,0,0,0,1.617,4.671,11.272,11.272,0,0,0,3.707,4.377c-.641.109-1.268.215-1.9.335,0,0,0,0,0,0s-.009,0-.016,0c-2.479.465-4.966,1.021-7.4,1.652Zm13.893-4.06a9.159,9.159,0,0,0,1.188-3.537,46.024,46.024,0,0,0,.152-4.906c0-.261-.007-.446,0-.551,0-.192-.031-.873-.232-3.023l-.007-.069a3.688,3.688,0,0,0,1.554.259,3.711,3.711,0,0,0,.989-.174,3.723,3.723,0,0,0,.5-.21c0,.024.17,2.607.257,3.079.025.113.056.326.1.618a45.879,45.879,0,0,0,.927,4.788,9.721,9.721,0,0,0,1.8,3.485,12.584,12.584,0,0,0,1.277,1.434l-.054,0a.009.009,0,0,1-.011,0,61.481,61.481,0,0,0-9.5.393A11.491,11.491,0,0,0,137.086-8876.244Zm8.5,1.192h0Zm-51.316-3.273a4.32,4.32,0,0,1-2.054-2.188,4.149,4.149,0,0,1,1.92-5.462c.112-.049.232-.1.36-.139a3.756,3.756,0,0,1,2.829.224,4.3,4.3,0,0,1,2.05,2.188,4.418,4.418,0,0,1,.125,3.2,3.831,3.831,0,0,1-2.045,2.26c-.116.052-.237.1-.357.136a3.633,3.633,0,0,1-1.126.179A3.88,3.88,0,0,1,94.271-8878.325Zm11.58-7.758a4.072,4.072,0,0,1,2.423-5.211,4.073,4.073,0,0,1,5.024,2.791,4.074,4.074,0,0,1-2.423,5.216,3.645,3.645,0,0,1-1.133.181A4.189,4.189,0,0,1,105.851-8886.083Zm50.789-.853a4.4,4.4,0,0,1-2.914-5.167,3.835,3.835,0,0,1,2.532-2.86,3.723,3.723,0,0,1,2.22-.021,4.216,4.216,0,0,1,2.445,1.992,4.469,4.469,0,0,1,.478,3.182,3.855,3.855,0,0,1-2.541,2.858,3.626,3.626,0,0,1-1.127.179A3.792,3.792,0,0,1,156.64-8886.936Zm-36.719-3.443a4.322,4.322,0,0,1,.373-2.977,3.752,3.752,0,0,1,2.157-1.84,3.108,3.108,0,0,1,.375-.1,4.148,4.148,0,0,1,4.763,3.289,4.328,4.328,0,0,1-.375,2.979,3.767,3.767,0,0,1-2.157,1.843,3.667,3.667,0,0,1-.368.1,3.647,3.647,0,0,1-.764.081A4.229,4.229,0,0,1,119.921-8890.379Zm16.859.252a4.455,4.455,0,0,1-1.389-2.9,3.987,3.987,0,0,1,2.628-4.183,3.74,3.74,0,0,1,.971-.174,3.923,3.923,0,0,1,2.876,1.1,4.458,4.458,0,0,1,1.387,2.907,3.972,3.972,0,0,1-2.622,4.178,3.621,3.621,0,0,1-.969.174c-.057,0-.113,0-.17,0A3.963,3.963,0,0,1,136.78-8890.127Z" transform="translate(5491.314 10517.145)" fill="#f7f2e7"/>
  </g>
</svg>
